<svg width="141" height="32" viewBox="0 0 141 32" fill="none" xmlns="http://www.w3.org/2000/svg">
<path d="M57.7451 31.6927C53.9441 31.6927 51.0798 30.7017 49.1522 28.7198C47.2246 26.7107 46.2607 23.5749 46.2607 19.3124V4H52.0844V19.3939C52.0844 21.7288 52.5459 23.4256 53.469 24.4844C54.3921 25.5433 55.831 26.0727 57.7858 26.0727C59.7949 26.0727 61.2338 25.5433 62.1026 24.4844C62.9985 23.4256 63.4465 21.7288 63.4465 19.3939V4H69.2701V19.3124C69.2701 23.5749 68.3199 26.7107 66.4194 28.7198C64.5189 30.7017 61.6275 31.6927 57.7451 31.6927Z" fill="white"/>
<path d="M31.5228 31.2854H25.6992V4H31.5228V31.2854ZM45.1655 31.2854H27.7354V26.1134H45.1655V31.2854Z" fill="white"/>
<path d="M13.2355 31.2854H2.60637V26.1134H12.3803C13.9278 26.1134 15.0545 25.8555 15.7604 25.3397C16.4663 24.8238 16.8192 24.0093 16.8192 22.8962C16.8192 22.1631 16.6428 21.5659 16.2898 21.1043C15.964 20.6428 15.4753 20.3034 14.8237 20.0862C14.1721 19.8418 13.3848 19.7197 12.4617 19.7197H2.60637V15.0364H11.9323C12.6925 15.0364 13.3441 14.9413 13.8871 14.7513C14.4572 14.5612 14.8916 14.2626 15.1903 13.8553C15.516 13.4209 15.6789 12.8508 15.6789 12.1449C15.6789 11.3847 15.516 10.801 15.1903 10.3938C14.8916 9.95936 14.4572 9.64714 13.8871 9.45709C13.3169 9.26704 12.6382 9.17202 11.8508 9.17202H2.60637V4H13.3984C15.4075 4 17.0229 4.31222 18.2446 4.93666C19.4935 5.53396 20.403 6.36202 20.9731 7.42086C21.5433 8.4797 21.8284 9.64714 21.8284 10.9232C21.8284 12.0906 21.584 13.0816 21.0953 13.8961C20.6338 14.6834 20.0093 15.3214 19.222 15.8101C18.4346 16.2717 17.5387 16.6246 16.5342 16.869C15.5296 17.0862 14.4979 17.2219 13.4391 17.2762C15.7468 17.3576 17.5794 17.697 18.9369 18.2943C20.3215 18.8916 21.3125 19.7061 21.9098 20.7378C22.5071 21.7423 22.8057 22.8826 22.8057 24.1586C22.8057 25.8691 22.4121 27.2401 21.6247 28.2718C20.8374 29.3035 19.7243 30.0637 18.2853 30.5524C16.8464 31.0411 15.1631 31.2854 13.2355 31.2854ZM5.82361 31.2854H0V4H5.82361V31.2854Z" fill="white"/>
<path d="M128.689 11.5753V4.12914H132.65C134.449 4.12914 135.349 4.891 135.349 6.41471C135.349 7.93153 134.346 8.68993 132.339 8.68993H130.726V11.5753H128.689ZM133.26 11.5753L131.005 8.14181H133.26L135.545 11.5753H133.26ZM130.726 7.1283H132.484C133.049 7.1283 133.332 6.89044 133.332 6.41471C133.332 5.93208 133.032 5.69077 132.432 5.69077H130.726V7.1283ZM131.988 15.5466C130.402 15.5466 129.006 15.2226 127.799 14.5745C126.6 13.9264 125.662 13.0267 124.986 11.8752C124.31 10.717 123.973 9.37595 123.973 7.85224C123.973 6.32853 124.31 4.99097 124.986 3.83957C125.662 2.68127 126.6 1.77807 127.799 1.12998C129.006 0.481884 130.402 0.157837 131.988 0.157837C133.58 0.157837 134.976 0.481884 136.176 1.12998C137.383 1.77807 138.32 2.68127 138.989 3.83957C139.665 4.99097 140.003 6.32853 140.003 7.85224C140.003 9.37595 139.665 10.717 138.989 11.8752C138.32 13.0267 137.383 13.9264 136.176 14.5745C134.976 15.2226 133.58 15.5466 131.988 15.5466ZM131.988 13.9747C133.201 13.9747 134.266 13.7196 135.183 13.2094C136.1 12.6923 136.817 11.9752 137.334 11.0582C137.852 10.1344 138.11 9.06569 138.11 7.85224C138.11 6.63878 137.852 5.57356 137.334 4.65658C136.817 3.7327 136.1 3.01566 135.183 2.50546C134.266 1.98836 133.201 1.72981 131.988 1.72981C130.781 1.72981 129.716 1.98836 128.792 2.50546C127.875 3.01566 127.158 3.7327 126.641 4.65658C126.131 5.57356 125.876 6.63878 125.876 7.85224C125.876 9.06569 126.134 10.1309 126.651 11.0479C127.168 11.9649 127.885 12.6819 128.802 13.199C129.719 13.7161 130.781 13.9747 131.988 13.9747Z" fill="white"/>
<path d="M111.455 21.0636H100.703V16.3803H110.885C111.726 16.3803 112.473 16.2581 113.124 16.0137C113.776 15.7694 114.278 15.3893 114.631 14.8735C115.011 14.3576 115.201 13.6653 115.201 12.7965C115.201 11.9277 115.011 11.2218 114.631 10.6788C114.278 10.1358 113.776 9.75573 113.124 9.53854C112.473 9.29419 111.726 9.17202 110.885 9.17202H100.703V4H111.088C113.043 4 114.794 4.31222 116.342 4.93666C117.889 5.53396 119.097 6.47062 119.966 7.74666C120.862 8.99554 121.31 10.5838 121.31 12.5114C121.31 14.3848 120.862 15.9187 119.966 17.1133C119.097 18.2807 117.916 19.136 116.423 19.6789C114.957 20.2219 113.301 20.4799 111.455 20.4527V21.0636ZM104.246 31.2854H98.4229V4H104.246V31.2854ZM122.369 31.2854H115.649L111.047 23.5478C110.504 22.6518 109.88 22.0138 109.174 21.6337C108.495 21.2536 107.559 21.0636 106.364 21.0636L111.984 20.0862C113.07 20.1676 113.966 20.3984 114.672 20.7785C115.405 21.1315 116.029 21.593 116.545 22.1631C117.061 22.7333 117.563 23.412 118.052 24.1994L122.369 31.2854Z" fill="white"/>
<path d="M85.9156 21.0636H75.1644V16.3803H85.3455C86.1871 16.3803 86.9338 16.2581 87.5854 16.0137C88.2369 15.7694 88.7392 15.3893 89.0922 14.8735C89.4723 14.3576 89.6623 13.6653 89.6623 12.7965C89.6623 11.9277 89.4723 11.2218 89.0922 10.6788C88.7392 10.1358 88.2369 9.75573 87.5854 9.53854C86.9338 9.29419 86.1871 9.17202 85.3455 9.17202H75.1644V4H85.5491C87.5039 4 89.2551 4.31222 90.8026 4.93666C92.3501 5.53396 93.5583 6.47062 94.4271 7.74666C95.323 8.99554 95.771 10.5838 95.771 12.5114C95.771 14.3848 95.323 15.9187 94.4271 17.1133C93.5583 18.2807 92.3773 19.136 90.884 19.6789C89.418 20.2219 87.7618 20.4799 85.9156 20.4527V21.0636ZM78.7074 31.2854H72.8838V4H78.7074V31.2854ZM96.8298 31.2854H90.1103L85.5084 23.5478C84.9654 22.6518 84.341 22.0138 83.6351 21.6337C82.9563 21.2536 82.0197 21.0636 80.8251 21.0636L86.4451 20.0862C87.531 20.1676 88.427 20.3984 89.1329 20.7785C89.8659 21.1315 90.4904 21.593 91.0062 22.1631C91.5221 22.7333 92.0243 23.412 92.513 24.1994L96.8298 31.2854Z" fill="white"/>
</svg>
